<svg width="350" height="350" viewBox="0 0 350 350" fill="none" xmlns="http://www.w3.org/2000/svg">
<path d="M174.999 11.6472L178.195 0.446513C176.106 -0.148838 173.892 -0.148838 171.802 0.446513L174.999 11.6472ZM11.6653 58.3166L8.46865 47.1159C5.82048 47.8708 3.52465 49.5381 1.98736 51.8228C0.450071 54.1075 -0.229584 56.8624 0.0686473 59.6L11.6653 58.3166ZM34.9987 268.329L23.402 269.612C23.6163 271.547 24.3114 273.398 25.424 274.996C26.5366 276.594 28.0314 277.887 29.772 278.76L34.9987 268.329ZM174.999 338.333L169.772 348.764C171.394 349.577 173.184 350 174.999 350C176.813 350 178.603 349.577 180.225 348.764L174.999 338.333ZM314.999 268.329L320.226 278.76C321.966 277.887 323.461 276.594 324.573 274.996C325.686 273.398 326.381 271.547 326.595 269.612L314.999 268.329ZM338.332 58.3166L349.929 59.6C350.233 56.8586 349.556 54.0982 348.018 51.8085C346.481 49.5189 344.181 47.8481 341.529 47.0926L338.332 58.3166ZM174.999 69.9839L185.685 65.317L174.999 40.8856L164.312 65.317L174.999 69.9839ZM171.802 0.446513L8.46865 47.1159L14.862 69.5172L178.195 22.8478L171.802 0.446513ZM0.0686473 59.5767L23.402 269.589L46.5953 267.022L23.262 57.0098L0.0686473 59.5767ZM29.772 278.76L169.772 348.764L180.225 327.879L40.2253 257.875L29.772 278.76ZM180.225 348.764L320.226 278.76L309.772 257.875L169.772 327.879L180.225 348.764ZM326.595 269.589L349.929 59.5767L326.736 57.0098L303.402 267.022L326.595 269.589ZM341.529 47.0693L178.195 0.399844L171.802 22.8478L335.136 69.5172L341.529 47.0693ZM104.019 261.329L185.685 74.6509L164.312 65.317L82.6454 251.995L104.019 261.329ZM164.312 74.6509L245.979 261.329L267.352 251.995L185.685 65.317L164.312 74.6509ZM116.665 209.992H233.332V186.657H116.665V209.992Z" fill="#0F0F0F"/>
</svg>
