<svg width="350" height="350" viewBox="0 0 350 350" fill="none" xmlns="http://www.w3.org/2000/svg">
<path d="M258.879 222.485C255.975 191.308 243.62 171.101 237.6 159.649C231.584 148.195 222.334 137.476 222.328 137.493C222.311 137.542 213.999 173.975 199.059 200.337C196.562 204.739 193.251 210.235 189.907 214.659C179.591 229.48 164.628 243.652 155.704 258.018C146.858 272.259 145.218 286.36 146.041 302.395C146.871 318.516 151.449 334.327 155.842 350C172.412 347.093 186.831 342.117 199.308 335.754C232.139 319.009 251.976 292.228 257.616 263.375C257.616 263.375 257.891 262.199 258.012 260.772C260.557 238.473 259.713 231.435 258.879 222.485ZM258.879 222.485C255.975 191.308 243.62 171.101 237.6 159.649C231.584 148.195 222.334 137.476 222.328 137.493L220.119 134.821C171.703 79.5293 78.853 51.923 0.401966 77.5086C-3.37589 116.266 18.7098 182.946 99.285 201.548C131.857 209.699 157.943 207.586 189.91 214.657C189.91 214.657 222.402 223.874 241.304 237.688C249.808 243.904 258.325 252.079 257.898 261.805C260.59 238.659 259.723 231.577 258.879 222.485ZM223.696 105.046C212.248 77.7984 217.101 59.5383 238.044 34.1305C248.033 22.0063 265.282 7.94336 280.397 0C341.384 31.0898 363.937 89.0039 341.508 142.789C325.183 181.923 309.867 198.332 271.144 238.596C275.658 195.475 257.004 165.577 238.686 132.357C234.024 123.908 227.578 114.283 223.696 105.046ZM257.898 261.805C258.325 252.079 249.808 243.904 241.304 237.688C222.402 223.874 189.91 214.657 189.91 214.657C193.254 210.232 196.565 204.739 199.059 200.337C214.002 173.977 222.311 137.542 222.328 137.493C222.334 137.476 231.584 148.195 237.6 159.646C243.617 171.101 255.979 191.308 258.883 222.482C259.726 231.577 260.59 238.662 257.898 261.805Z" fill="#0F0F0F"/>
</svg>
