<svg width="165" height="165" viewBox="0 0 165 165" fill="none" xmlns="http://www.w3.org/2000/svg">
<path d="M153.266 98.7654L153.555 97.1893C154.163 97.1791 154.744 97.0657 155.298 96.8491C155.856 96.6391 156.365 96.3391 156.823 95.9492C157.282 95.5593 157.667 95.0926 157.981 94.5491C158.294 94.0056 158.513 93.3957 158.636 92.7194C158.835 91.6352 158.734 90.5944 158.333 89.5972C157.931 88.6055 157.232 87.7414 156.234 87.0049C155.242 86.275 153.954 85.7657 152.373 85.477C150.78 85.1863 149.389 85.2069 148.202 85.5389C147.014 85.8765 146.056 86.4381 145.329 87.2237C144.606 88.0159 144.146 88.9541 143.947 90.0383C143.823 90.7146 143.812 91.3622 143.912 91.9812C144.012 92.6002 144.205 93.1725 144.49 93.6981C144.781 94.2248 145.15 94.6849 145.598 95.0785C146.044 95.4777 146.55 95.7896 147.116 96.014L146.827 97.5901C146.065 97.3065 145.378 96.9097 144.766 96.3996C144.16 95.8961 143.656 95.3017 143.256 94.6165C142.855 93.9368 142.582 93.1881 142.437 92.3704C142.292 91.5527 142.304 90.6856 142.472 89.769C142.736 88.327 143.331 87.113 144.256 86.1268C145.188 85.1417 146.371 84.4509 147.807 84.0546C149.242 83.6638 150.856 83.6321 152.65 83.9596C154.445 84.2871 155.943 84.887 157.147 85.7593C158.349 86.6372 159.209 87.7009 159.725 88.9503C160.247 90.2007 160.376 91.5468 160.112 92.9888C159.944 93.9054 159.648 94.7205 159.222 95.4341C158.803 96.1488 158.282 96.7526 157.66 97.2456C157.043 97.7452 156.362 98.1232 155.616 98.3798C154.869 98.642 154.086 98.7705 153.266 98.7654Z" fill="white"/>
<path d="M154.402 115.126L153.395 116.668L137.19 113.677L137.106 113.805L146.388 127.401L145.381 128.942L130.752 119.422L131.572 118.166L143.38 125.85L143.454 125.736L134.866 113.12L135.658 111.907L150.685 114.66L150.76 114.546L138.952 106.862L139.772 105.606L154.402 115.126Z" fill="white"/>
<path d="M118.408 142.015C117.375 140.519 116.743 139.033 116.512 137.557C116.284 136.087 116.428 134.725 116.945 133.473C117.46 132.229 118.324 131.19 119.536 130.356C120.749 129.522 122.031 129.085 123.384 129.044C124.735 129.011 126.058 129.363 127.354 130.1C128.647 130.844 129.811 131.965 130.843 133.461C131.876 134.957 132.509 136.439 132.741 137.907C132.973 139.382 132.828 140.744 132.308 141.991C131.792 143.243 130.929 144.284 129.722 145.115C128.509 145.949 127.227 146.382 125.876 146.415C124.524 146.456 123.198 146.106 121.9 145.365C120.604 144.628 119.44 143.512 118.408 142.015ZM119.686 141.136C120.573 142.422 121.548 143.375 122.612 143.996C123.678 144.62 124.751 144.92 125.831 144.894C126.911 144.869 127.924 144.531 128.87 143.88C129.811 143.233 130.485 142.41 130.894 141.412C131.303 140.414 131.408 139.306 131.211 138.09C131.009 136.878 130.463 135.626 129.572 134.335C128.685 133.049 127.71 132.096 126.646 131.476C125.583 130.855 124.51 130.556 123.427 130.577C122.347 130.602 121.334 130.94 120.388 131.591C119.443 132.241 118.766 133.066 118.357 134.064C117.944 135.066 117.838 136.173 118.04 137.386C118.245 138.603 118.793 139.853 119.686 141.136Z" fill="white"/>
<path d="M111.016 154.487L111.37 155.875L99.104 158.994L98.7499 157.607L104.111 156.243L100.149 140.718L101.693 140.325L105.655 155.851L111.016 154.487Z" fill="white"/>
<path d="M86.1881 143.882L84.7736 161.279L79.1585 160.824C77.9239 160.724 76.9125 160.402 76.1244 159.86C75.3301 159.322 74.7563 158.632 74.4031 157.788C74.0442 156.944 73.906 156.015 73.9884 155.001C74.0708 153.987 74.3547 153.09 74.8401 152.308C75.325 151.532 76.0002 150.94 76.8658 150.531C77.7308 150.128 78.7778 149.976 80.0067 150.076L84.4241 150.434L84.308 151.861L79.9332 151.507C79.0214 151.433 78.2515 151.541 77.6236 151.832C76.9952 152.129 76.5096 152.563 76.1667 153.134C75.8182 153.704 75.6131 154.369 75.5514 155.128C75.4897 155.886 75.5848 156.575 75.8366 157.194C76.0827 157.813 76.495 158.316 77.0733 158.705C77.646 159.094 78.3939 159.325 79.317 159.4L83.3011 159.723L84.5996 143.753L86.1881 143.882Z" fill="white"/>
<path d="M66.1241 141.871L59.2552 157.917L49.9425 153.943L50.506 152.627L58.3528 155.975L60.9387 149.934L53.5857 146.797L54.1492 145.481L61.5022 148.618L64.0948 142.561L56.0912 139.147L56.6546 137.83L66.1241 141.871Z" fill="white"/>
<path d="M38.7588 146.822L37.8099 147.894L28.3183 139.522L29.2672 138.45L33.4153 142.109L44.0337 130.11L45.2289 131.164L34.6106 143.163L38.7588 146.822Z" fill="white"/>
<path d="M24.5688 124.445L21.9249 119.742C21.3541 118.727 21.0406 117.769 20.9844 116.869C20.9254 115.964 21.1024 115.149 21.5153 114.422C21.9233 113.699 22.551 113.099 23.3986 112.624C24.271 112.136 25.1401 111.896 26.006 111.906C26.8691 111.911 27.6846 112.167 28.4523 112.674C29.2173 113.177 29.8866 113.939 30.4602 114.959L33.6679 120.664L18.4412 129.197L17.6602 127.808L31.6601 119.963L29.2334 115.646C28.8241 114.918 28.3362 114.381 27.7696 114.034C27.1953 113.685 26.5951 113.51 25.9689 113.509C25.3377 113.511 24.7273 113.677 24.1374 114.008C23.3196 114.466 22.8054 115.152 22.5949 116.064C22.3767 116.975 22.5697 117.967 23.174 119.042L25.8179 123.745L24.5688 124.445Z" fill="white"/>
<path d="M17.403 85.5251C17.3916 86.1159 17.2363 86.6528 16.9371 87.1358C16.6322 87.6187 16.2327 88.0002 15.7386 88.2806C15.2444 88.5609 14.7019 88.6982 14.111 88.6925C13.5145 88.681 12.9776 88.5258 12.5004 88.2267C12.0174 87.9276 11.6358 87.531 11.3556 87.0369C11.0697 86.537 10.9325 85.9916 10.944 85.4008C10.9555 84.8043 11.1137 84.2675 11.4184 83.7903C11.7176 83.3074 12.1142 82.9257 12.6084 82.6454C13.097 82.3593 13.6395 82.222 14.236 82.2335C14.8268 82.2448 15.3636 82.4029 15.8464 82.7077C16.3294 83.0069 16.7138 83.4035 16.9998 83.8978C17.2801 84.3862 17.4145 84.9287 17.403 85.5251Z" fill="white"/>
<path d="M9.88658 49.4082L10.787 48.0931L23.986 57.1015L27.6841 51.7008L14.485 42.6924L15.3855 41.3774L28.5845 50.3857L32.2874 44.978L19.0883 35.9697L19.9839 34.6617L34.4008 44.5012L24.3034 59.2476L9.88658 49.4082Z" fill="white"/>
<path d="M47.6861 22.0432C48.6632 23.5765 49.2403 25.0846 49.4173 26.5675C49.5912 28.0456 49.397 29.4007 48.8348 30.6329C48.2743 31.8573 47.373 32.864 46.1308 33.6531C44.8887 34.4421 43.591 34.8322 42.2379 34.8235C40.8865 34.8068 39.5771 34.4068 38.3097 33.6233C37.0441 32.832 35.9227 31.6697 34.9455 30.1364C33.9683 28.6031 33.3904 27.099 33.2117 25.6239C33.0347 24.141 33.2288 22.7859 33.7941 21.5585C34.3564 20.3263 35.2561 19.3172 36.4935 18.5311C37.7357 17.7421 39.0324 17.3559 40.3838 17.3725C41.7369 17.3813 43.0487 17.7798 44.3192 18.5681C45.5866 19.3516 46.7089 20.51 47.6861 22.0432ZM46.3767 22.8749C45.537 21.5573 44.5972 20.569 43.5575 19.9102C42.5147 19.2465 41.4532 18.9078 40.3731 18.8939C39.2929 18.8799 38.2685 19.1807 37.2997 19.7961C36.3357 20.4085 35.6312 21.206 35.1862 22.1887C34.7412 23.1714 34.595 24.274 34.7475 25.4965C34.9048 26.7159 35.4048 27.9868 36.2476 29.3093C37.0874 30.6269 38.0271 31.6152 39.0669 32.274C40.1066 32.9329 41.1681 33.2716 42.2513 33.2903C43.3314 33.3043 44.3559 33.0035 45.3247 32.3881C46.2935 31.7727 47.0004 30.9736 47.4453 29.9909C47.8951 29.0052 48.0414 27.9026 47.8841 26.6832C47.7237 25.459 47.2213 24.1895 46.3767 22.8749Z" fill="white"/>
<path d="M60.9309 25.1803L60.6175 23.7222L61.4675 23.5401C61.9453 23.4377 62.3264 23.2776 62.6109 23.0598C62.8997 22.8352 63.1204 22.5642 63.273 22.2468C63.43 21.9226 63.5462 21.5578 63.6218 21.1523L63.7583 20.4083L55.0211 8.35178L56.6962 7.99292L64.1369 18.3573L66.2798 5.93973L67.9299 5.58622L65.1471 21.3136C65.03 21.9314 64.8647 22.4869 64.651 22.9801C64.4418 23.4665 64.1183 23.8815 63.6808 24.2251C63.242 24.5632 62.6226 24.8179 61.8226 24.9893L60.9309 25.1803Z" fill="white"/>
<path d="M79.876 21.1263L81.893 3.78873L87.4891 4.43763C88.7195 4.58031 89.7191 4.93646 90.488 5.50609C91.2631 6.07073 91.8126 6.78079 92.1364 7.63628C92.4658 8.49242 92.5717 9.42561 92.4542 10.4358C92.3367 11.4461 92.0218 12.3333 91.5096 13.0976C90.998 13.8562 90.3027 14.4248 89.4235 14.8033C88.545 15.1762 87.4933 15.2916 86.2686 15.1496L81.8663 14.6391L82.0317 13.2169L86.3917 13.7225C87.3004 13.8278 88.0736 13.7459 88.7112 13.4766C89.3496 13.2018 89.8499 12.785 90.2124 12.2265C90.5804 11.6686 90.8085 11.0115 90.8964 10.2552C90.9844 9.49894 90.9133 8.80717 90.6831 8.17989C90.4586 7.55326 90.0641 7.03562 89.4995 6.62697C88.9407 6.21897 88.2013 5.96163 87.2813 5.85495L83.3107 5.39453L81.4592 21.3099L79.876 21.1263Z" fill="white"/>
<path d="M108.097 7.98325L109.495 8.69367L102.848 21.7307L102.97 21.7924L118.833 13.4388L120.216 14.1415L112.288 29.6918L110.867 28.9698L117.506 15.9479L117.384 15.8862L101.544 24.2323L100.169 23.5335L108.097 7.98325Z" fill="white"/>
<path d="M119.166 32.9065L120.257 31.9152L120.567 32.2554C121.053 32.7888 121.615 33.0504 122.251 33.0403C122.892 33.0264 123.672 32.7358 124.593 32.1684C125.513 31.6011 126.636 30.7579 127.961 29.639L134.647 23.9811L141.547 31.5533L128.626 43.2884L127.552 42.1104L139.413 31.3379L134.609 26.0651L128.741 31.0142C127.328 32.2053 126.072 33.1165 124.971 33.7476C123.875 34.375 122.881 34.6636 121.99 34.6134C121.102 34.5674 120.27 34.1182 119.493 33.2656L119.166 32.9065Z" fill="white"/>
<path d="M144.605 65.5466C144.488 64.9675 144.523 64.4098 144.709 63.8735C144.902 63.336 145.209 62.8768 145.63 62.496C146.051 62.1151 146.551 61.8633 147.129 61.7405C147.714 61.6222 148.272 61.6572 148.803 61.8454C149.339 62.0325 149.798 62.3367 150.179 62.7581C150.567 63.184 150.82 63.6865 150.937 64.2656C151.056 64.8502 151.019 65.4085 150.825 65.9404C150.638 66.4767 150.334 66.9354 149.913 67.3162C149.498 67.7015 148.999 67.9534 148.414 68.0717C147.835 68.1888 147.276 68.1511 146.739 67.9584C146.202 67.7713 145.74 67.4677 145.354 67.0474C144.974 66.6315 144.724 66.1313 144.605 65.5466Z" fill="white"/>
</svg>
