<svg width="350" height="350" viewBox="0 0 350 350" fill="none" xmlns="http://www.w3.org/2000/svg">
<path d="M350 175.041C350 149.003 320.965 124.325 276.442 109.03C286.723 58.085 282.158 17.5385 262.033 4.55247C257.157 1.48562 251.638 -0.0580995 246.05 0.0818789V17.9315C249.331 17.9315 251.971 18.6684 254.187 20.0276C263.885 26.2832 268.1 50.0608 264.819 80.6672C264.031 88.2001 262.748 96.126 261.173 104.216C246.263 100.181 231.131 97.2653 215.877 95.4873C206.79 81.4088 196.875 68.0274 186.2 55.4321C209.46 31.1632 231.292 17.866 246.137 17.866V0C226.508 0 200.827 15.7044 174.854 42.9374C148.896 15.8845 123.2 0.327516 103.585 0.327516V18.1771C118.358 18.1771 140.263 31.4088 163.523 55.514C153.533 67.3045 143.544 80.6672 134.05 95.4873C118.764 97.2456 103.605 100.189 88.6812 104.297C87.104 96.6302 85.8629 88.8806 84.9625 81.0766C81.6083 50.4538 85.75 26.6762 95.3896 20.3551C97.5187 18.9141 100.304 18.259 103.585 18.259V0.409395C97.6063 0.409395 92.1667 1.85047 87.4708 4.87999C67.4188 17.866 62.9271 58.3142 73.2667 109.112C28.8896 124.505 0 149.085 0 175.041C0 201.078 29.0354 225.757 73.5583 241.035C63.2771 291.997 67.8417 332.543 87.9667 345.513C92.6042 348.559 98.0292 350 104.008 350C123.637 350 149.319 334.296 175.292 307.063C201.25 334.132 226.931 349.672 246.56 349.672C252.191 349.806 257.752 348.258 262.675 345.186C282.727 332.216 287.219 291.768 276.879 240.97C321.11 225.675 350 200.997 350 175.041ZM257.104 121.607C254.333 132.314 251.121 142.871 247.479 153.245C241.517 140.222 234.97 127.547 227.865 115.269C238 116.956 247.771 119.036 257.119 121.607H257.104ZM224.438 206.925C219.096 217.396 213.36 227.608 207.244 237.531C185.839 239.649 164.311 239.677 142.902 237.613C130.622 217.916 119.883 197.063 110.804 175.287C119.869 153.459 130.563 132.533 142.771 112.731C164.17 110.608 185.693 110.575 207.098 112.633C213.019 122.163 218.808 132.349 224.365 143.092C229.79 153.572 234.719 164.217 239.21 174.959C234.669 185.832 229.741 196.496 224.438 206.925ZM247.479 196.51C251.329 207.236 254.625 217.978 257.323 228.393C247.99 230.964 238.131 233.126 227.937 234.796C235.014 222.407 241.536 209.629 247.479 196.51ZM175.146 281.991C168.51 274.295 161.875 265.73 155.312 256.347C161.729 256.674 168.292 256.92 174.927 256.92C181.635 256.92 188.271 256.756 194.76 256.347C188.344 265.73 181.708 274.295 175.146 281.991ZM122.062 234.796C112.23 233.196 102.468 231.087 92.8083 228.475C95.4479 218.142 98.7292 207.481 102.433 196.837C105.365 203.224 108.442 209.643 111.796 216.062C115.15 222.465 118.562 228.721 122.062 234.796ZM174.781 68.0906C181.417 75.7872 188.052 84.3518 194.615 93.7351C188.198 93.4076 181.635 93.1619 175 93.1619C168.292 93.1619 161.656 93.3257 155.167 93.7351C161.583 84.3518 168.219 75.7872 174.781 68.0906ZM121.99 115.286C114.915 127.648 108.393 140.399 102.448 153.49C98.7031 143.05 95.4179 132.409 92.6042 121.607C101.937 119.118 111.796 116.956 121.99 115.286ZM57.4292 215.571C32.1708 203.486 15.8375 187.618 15.8375 175.041C15.8375 162.464 32.1708 146.514 57.4292 134.511C63.5542 131.547 70.2625 128.894 77.1896 126.421C81.2583 142.109 86.6104 158.452 93.2312 175.205C86.9803 190.961 81.6938 207.178 77.4083 223.743C70.6337 221.387 63.9659 218.66 57.4292 215.571ZM95.8125 330.038C86.1146 323.815 81.9 300.005 85.1812 269.415C85.9687 261.882 87.2521 253.94 88.8271 245.85C102.798 249.698 118.067 252.662 134.123 254.595C143.211 268.673 153.125 282.054 163.8 294.65C140.54 318.919 118.708 332.216 103.863 332.216C101.062 332.25 98.2965 331.508 95.8125 330.054V330.038ZM265.037 269.005C268.392 299.612 264.25 323.406 254.61 329.727C252.481 331.168 249.696 331.806 246.415 331.806C231.642 331.806 209.737 318.591 186.477 294.47C197.107 281.927 206.955 268.576 215.95 254.513C231.236 252.754 246.395 249.811 261.319 245.703C262.967 253.792 264.235 261.554 265.037 269.005ZM292.498 215.571C286.373 218.535 279.665 221.188 272.737 223.661C268.377 207.012 263.017 190.713 256.696 174.877C263.258 158.223 268.523 141.962 272.519 126.339C279.315 128.703 286.007 131.43 292.571 134.511C317.829 146.596 334.162 162.464 334.162 175.041C334.09 187.618 317.756 203.568 292.498 215.571Z" fill="#0F0F0F"/>
<path d="M174.944 211.653C183.593 211.653 191.887 207.796 198.002 200.929C204.117 194.062 207.553 184.748 207.553 175.037C207.553 165.326 204.117 156.012 198.002 149.146C191.887 142.279 183.593 138.421 174.944 138.421C166.296 138.421 158.002 142.279 151.887 149.146C145.771 156.012 142.336 165.326 142.336 175.037C142.336 184.748 145.771 194.062 151.887 200.929C158.002 207.796 166.296 211.653 174.944 211.653Z" fill="#0F0F0F"/>
</svg>
