<svg width="360" height="360" viewBox="0 0 360 360" fill="none" xmlns="http://www.w3.org/2000/svg">
<path d="M305 192.5V188.325C305 169.925 290.075 155 271.675 155H242.5C232.554 155 223.016 158.951 215.983 165.983C208.951 173.016 205 182.554 205 192.5C205 202.446 208.951 211.984 215.983 219.017C223.016 226.049 232.554 230 242.5 230H267.5C277.446 230 286.984 233.951 294.017 240.983C301.049 248.016 305 257.554 305 267.5C305 277.446 301.049 286.984 294.017 294.017C286.984 301.049 277.446 305 267.5 305H242.5C232.554 305 223.016 301.049 215.983 294.017C208.951 286.984 205 277.446 205 267.5M155 142.5V267.5C155 277.446 151.049 286.984 144.017 294.017C136.984 301.049 127.446 305 117.5 305C107.554 305 98.0161 301.049 90.9835 294.017C83.9509 286.984 80 277.446 80 267.5M5 5H355V355H5V5Z" stroke="#0F0F0F" stroke-width="10"/>
</svg>
