<svg width="350" height="350" viewBox="0 0 350 350" fill="none" xmlns="http://www.w3.org/2000/svg">
<path d="M349.82 79.1396C350 79.4898 350 80.015 350 80.5403V155.653C350 157.404 348.919 159.505 347.297 160.38L282.235 196.798V268.759C282.235 270.685 281.334 272.436 279.531 273.487L144.001 349.3C143.641 349.475 143.28 350 142.92 350H138.955C138.955 350 138.955 349.475 138.234 349.3L2.70348 273.487C1.87294 272.991 1.18792 272.295 0.714428 271.467C0.240932 270.639 -0.00508655 269.707 7.97194e-05 268.759V43.5968C7.97194e-05 42.7214 7.95437e-05 42.1961 0.180306 41.8459C0.180306 41.6708 0.360532 41.4957 0.360532 41.3207C0.360532 40.9705 0.540759 40.7954 0.720985 40.4452C0.720985 40.2701 0.901211 40.095 1.08144 39.92L1.62212 39.3947L2.1628 38.8694C2.34303 38.6943 2.52325 38.5193 2.70348 38.5193L70.4687 0.525263C72.2709 -0.175088 74.4336 -0.175088 75.8755 0.525263L144.001 38.5193C144.181 38.6943 144.362 38.6943 144.542 38.8694L145.082 39.3947L145.623 39.92C145.803 40.095 145.984 40.2701 145.984 40.4452C146.164 40.7954 146.344 40.9705 146.344 41.3207C146.344 41.4957 146.524 41.6708 146.524 41.8459C146.704 42.3712 146.704 42.7214 146.704 43.5968V183.667L203.296 152.501V80.5403C203.296 80.015 203.296 79.4898 203.476 79.1396L203.656 78.6143C203.656 78.6143 203.836 78.0891 204.017 77.7389C204.017 77.5638 204.197 77.3887 204.377 77.2136L204.918 76.6883L205.458 76.1631C205.639 75.988 205.819 75.8129 205.999 75.8129L274.125 37.8189C275.566 36.7684 277.729 36.7684 279.531 37.8189L347.297 75.8129C347.477 75.8129 347.657 75.988 347.837 76.1631L348.378 76.6883L348.919 77.2136C349.099 77.3887 349.099 77.5638 349.279 77.7389C349.459 78.0891 349.459 78.6143 349.64 78.6143C349.82 78.6143 349.82 78.6143 349.82 79.1396ZM338.826 152.501V89.995L282.235 121.511V183.667L338.826 152.501ZM271.061 265.608V202.926L146.704 271.911V335.118L271.061 265.608ZM11.1741 52.3512V265.608L135.53 335.118V271.911L70.6489 236.193H70.4687C70.2884 236.193 70.1082 236.193 69.928 235.668C69.7477 235.668 69.5675 235.493 69.3873 235.318L68.8466 234.792C68.6664 234.617 68.6664 234.442 68.4862 234.267C68.3059 233.917 68.3059 233.742 68.1257 233.567C68.1257 233.217 67.9455 233.042 67.9455 232.866C67.7653 232.691 67.7653 232.341 67.7653 232.166V84.2171L11.1741 52.3512ZM73.3523 11.7309L16.9414 43.5968L73.3523 74.7624L129.943 43.5968L73.3523 11.7309ZM135.53 190.32V52.3512L78.9393 84.2171V222.011L135.53 190.32ZM276.648 48.8494L220.057 80.5403L276.648 112.056L333.059 80.5403L276.648 48.8494ZM271.061 121.511L214.47 89.995V152.501L271.061 183.667V121.511ZM141.117 262.456L265.113 193.472L208.883 161.956L84.8868 231.466L141.117 262.456Z" fill="#0F0F0F"/>
</svg>
