<svg width="216" height="60" viewBox="0 0 216 60" fill="none" xmlns="http://www.w3.org/2000/svg">
<path d="M98.7828 35.8339C98.7828 36.9813 98.6174 38.0506 98.2865 39.0415C97.9556 40.0065 97.4593 40.854 96.7976 41.5842C96.1613 42.3144 95.3596 42.8882 94.3925 43.3054C93.4508 43.6966 92.3565 43.8922 91.1094 43.8922H78.3203V16.9398H90.6131C91.9874 16.9398 93.1582 17.1485 94.1253 17.5657C95.0924 17.9569 95.8814 18.4915 96.4922 19.1696C97.1285 19.8476 97.5866 20.63 97.8666 21.5167C98.1465 22.4033 98.2865 23.3422 98.2865 24.3332C98.2865 24.8026 98.2101 25.2981 98.0574 25.8196C97.9302 26.3412 97.7266 26.8498 97.4466 27.3452C97.1921 27.8407 96.8612 28.2971 96.454 28.7144C96.0468 29.1316 95.576 29.4707 95.0415 29.7314C95.6778 30.0444 96.225 30.4486 96.6831 30.9441C97.1667 31.4135 97.5611 31.9351 97.8666 32.5088C98.172 33.0565 98.401 33.6302 98.5537 34.23C98.7064 34.8038 98.7828 35.3384 98.7828 35.8339ZM91.9874 25.0373C91.9874 24.281 91.7711 23.6681 91.3384 23.1987C90.9058 22.7032 90.1168 22.4555 88.9715 22.4555H84.3903V27.3452H88.9715C90.0404 27.3452 90.8039 27.1366 91.2621 26.7194C91.7456 26.276 91.9874 25.7153 91.9874 25.0373ZM92.2546 35.5992C92.2546 34.7646 92.0129 34.0605 91.5293 33.4868C91.0712 32.9131 90.3077 32.6262 89.2387 32.6262H84.3903V38.3765H89.2387C90.2313 38.3765 90.9821 38.1288 91.4911 37.6333C92.0001 37.1117 92.2546 36.4337 92.2546 35.5992Z" fill="#0F0F0F"/>
<path d="M109.536 16.9398V43.8922H103.466V16.9398H109.536Z" fill="#0F0F0F"/>
<path d="M134.096 40.176C133.511 40.9323 132.836 41.5712 132.073 42.0928C131.335 42.5883 130.571 42.9925 129.782 43.3054C128.993 43.6184 128.204 43.84 127.415 43.9704C126.626 44.1008 125.888 44.166 125.201 44.166C124.005 44.166 122.796 43.9965 121.574 43.6575C120.353 43.3185 119.246 42.7969 118.253 42.0928C117.26 41.3886 116.446 40.502 115.81 39.4327C115.199 38.3374 114.893 37.0465 114.893 35.56V25.5067C114.893 24.0202 115.186 22.7293 115.772 21.634C116.382 20.5387 117.171 19.6259 118.138 18.8957C119.131 18.1395 120.238 17.5788 121.46 17.2137C122.681 16.8486 123.929 16.666 125.201 16.666C126.754 16.666 128.306 16.9007 129.859 17.3701C131.437 17.8135 132.747 18.5046 133.791 19.4434L130.851 24.2549C129.986 23.4986 129.057 23.0031 128.064 22.7684C127.097 22.5076 126.194 22.3773 125.354 22.3773C124.845 22.3773 124.336 22.4555 123.827 22.612C123.318 22.7684 122.847 23.0162 122.414 23.3552C121.982 23.6682 121.625 24.0984 121.345 24.6461C121.091 25.1677 120.963 25.8196 120.963 26.602V34.23C120.963 35.0124 121.091 35.6774 121.345 36.225C121.6 36.7466 121.931 37.1769 122.338 37.5159C122.745 37.8289 123.19 38.0636 123.674 38.2201C124.183 38.3765 124.692 38.4548 125.201 38.4548C125.659 38.4548 126.13 38.3896 126.614 38.2592C127.123 38.1288 127.593 37.881 128.026 37.5159V33.878H124.399V28.6361H134.096V40.176Z" fill="#0F0F0F"/>
<path d="M144.563 27.8147H155.061V33.3303H144.563V43.8922H138.493V16.9398H156.855V22.4946H144.563V27.8147Z" fill="#0F0F0F"/>
<path d="M166.353 16.9398V43.8922H160.283V16.9398H166.353Z" fill="#0F0F0F"/>
<path d="M191.753 35.9903C191.753 37.3464 191.473 38.533 190.913 39.5501C190.353 40.5411 189.59 41.3756 188.623 42.0536C187.681 42.7317 186.561 43.2402 185.263 43.5792C183.99 43.9183 182.642 44.0878 181.216 44.0878C180.249 44.0878 179.308 44.0356 178.391 43.9313C177.501 43.827 176.635 43.6444 175.795 43.3837C174.955 43.0968 174.116 42.7186 173.276 42.2492C172.461 41.7537 171.647 41.1409 170.832 40.4107L174.23 35.8339C175.35 36.7466 176.47 37.4247 177.59 37.868C178.735 38.2853 179.88 38.4939 181.025 38.4939C181.865 38.4939 182.565 38.4157 183.125 38.2592C183.685 38.1027 184.13 37.9071 184.461 37.6724C184.818 37.4116 185.059 37.1378 185.187 36.8509C185.339 36.5641 185.416 36.2902 185.416 36.0295C185.416 35.6383 185.314 35.2993 185.11 35.0124C184.932 34.6994 184.614 34.4126 184.156 34.1518C183.698 33.891 183.087 33.6302 182.323 33.3694C181.585 33.1086 180.656 32.8218 179.537 32.5088C178.315 32.1698 177.233 31.7917 176.292 31.3744C175.35 30.9311 174.548 30.4095 173.887 29.8097C173.25 29.1838 172.767 28.4536 172.436 27.6191C172.105 26.7846 171.94 25.7805 171.94 24.607C171.94 23.3813 172.169 22.286 172.627 21.3211C173.11 20.3301 173.772 19.4956 174.612 18.8175C175.477 18.1134 176.495 17.5788 177.666 17.2137C178.862 16.8486 180.16 16.666 181.56 16.666C183.087 16.666 184.589 16.8094 186.065 17.0963C187.566 17.3832 189.119 18.0743 190.722 19.1696L188.012 24.1767C186.765 23.3682 185.619 22.8597 184.576 22.6511C183.558 22.4425 182.527 22.3381 181.484 22.3381C180.516 22.3381 179.727 22.5076 179.117 22.8467C178.531 23.1596 178.239 23.6942 178.239 24.4505C178.239 24.7895 178.328 25.1025 178.506 25.3893C178.709 25.6501 179.04 25.9109 179.498 26.1717C179.957 26.4325 180.555 26.6933 181.293 26.9541C182.031 27.1888 182.934 27.4626 184.003 27.7755C185.683 28.245 187.032 28.7796 188.05 29.3794C189.068 29.9531 189.844 30.592 190.379 31.2962C190.939 31.9742 191.308 32.7175 191.486 33.5259C191.664 34.3083 191.753 35.1297 191.753 35.9903Z" fill="#0F0F0F"/>
<path d="M209.853 43.8922V32.9782H201.454V43.8922H195.384V16.9398H201.454V27.3844H209.853V16.9398H215.999V43.8922H209.853Z" fill="#0F0F0F"/>
<path d="M18.055 55.7696C18.2055 56.0694 18.3559 56.2193 18.5064 56.5191C18.5064 56.5191 18.5064 56.5191 18.6568 56.669C18.8073 56.8189 19.1082 57.2686 19.4091 57.7183C19.4091 57.7183 19.4091 57.7183 19.4091 57.8682C20.7632 60.2665 21.3651 60.2665 21.8165 59.6669L21.9669 59.517C22.1174 59.3671 22.2678 59.0673 22.4183 58.9174C22.1174 57.8682 21.5155 56.669 20.7632 55.17C19.5596 52.9216 18.055 50.3734 17.0018 47.6752C16.8513 47.0757 16.7009 46.7759 16.7009 46.3262C16.099 44.2276 15.9486 41.9792 16.099 40.1805C16.099 40.0306 16.099 39.7308 16.099 39.5809C16.2495 38.9813 16.4 38.3817 16.7009 37.4823C17.7541 34.4844 19.5596 31.6364 22.2678 28.7884C22.5687 28.4886 22.7192 28.3387 23.0201 28.0389C23.0201 28.0389 23.0201 28.0389 23.1706 27.889C32.1981 18.8953 51.4567 17.2464 51.4567 17.2464L44.0843 23.3922C41.8274 25.4907 39.721 27.7391 38.8182 28.4886L41.9779 27.7391C38.9687 31.6364 36.5614 35.2339 35.3577 37.1826L35.2072 37.3324C35.2072 37.3324 36.5614 31.7863 33.8531 31.7863C31.2953 31.7863 26.1797 39.5809 27.9852 43.9279C28.2862 44.5274 28.5871 45.127 28.888 45.5767C30.2421 47.5254 32.499 48.8744 35.3577 49.1742C39.1192 49.9237 44.987 49.0243 51.1558 44.0778C58.0769 38.6815 62.2897 26.3901 58.6787 17.3963C57.0237 13.0494 53.1118 9.45186 46.1907 7.05353C43.0311 6.00427 40.9247 5.70447 39.4201 5.70447C38.6678 4.955 37.6146 4.05562 36.4109 3.15625C33.2513 1.05771 28.5871 -0.741038 22.7192 0.308232C16.099 1.5074 21.666 2.85646 24.2238 4.955C25.1265 5.70447 25.4275 6.60385 24.2238 7.80301C23.4715 8.55249 23.321 9.00218 23.622 9.30197C23.0201 9.60176 22.4183 9.90155 21.8165 10.2013C18.6568 12.0001 11.2844 15.5976 9.93025 27.2894C9.0275 32.0861 9.62933 37.932 13.2403 44.0778C13.3908 44.3775 13.5412 44.6773 13.6917 44.9771C13.6917 45.127 13.6917 45.127 13.8422 45.2769C14.444 46.9258 13.2403 47.0757 10.6825 47.3755C10.0807 47.5254 9.47887 47.6752 8.72658 47.6752C3.611 47.975 1.20367 53.821 0 58.018C0.300917 58.3178 0.451375 57.7183 1.8055 58.018C1.8055 58.018 5.26604 59.2172 9.0275 55.7696C11.7357 53.2214 15.9486 52.4719 18.055 55.7696Z" fill="#0F0F0F"/>
</svg>
