<svg width="215" height="60" viewBox="0 0 215 60" fill="none" xmlns="http://www.w3.org/2000/svg">
<path d="M18.055 55.7696C18.2055 56.0694 18.3559 56.2193 18.5064 56.5191C18.5064 56.5191 18.5064 56.5191 18.6568 56.669C18.8073 56.8189 19.1082 57.2686 19.4091 57.7183C19.4091 57.7183 19.4091 57.7183 19.4091 57.8682C20.7632 60.2665 21.3651 60.2665 21.8165 59.6669L21.9669 59.517C22.1174 59.3671 22.2678 59.0673 22.4183 58.9174C22.1174 57.8682 21.5155 56.669 20.7632 55.17C19.5596 52.9216 18.055 50.3734 17.0018 47.6752C16.8513 47.0757 16.7009 46.7759 16.7009 46.3262C16.099 44.2276 15.9486 41.9792 16.099 40.1805C16.099 40.0306 16.099 39.7308 16.099 39.5809C16.2495 38.9813 16.4 38.3817 16.7009 37.4823C17.7541 34.4844 19.5596 31.6364 22.2678 28.7884C22.5687 28.4886 22.7192 28.3387 23.0201 28.0389C23.0201 28.0389 23.0201 28.0389 23.1706 27.889C32.1981 18.8953 51.4567 17.2464 51.4567 17.2464L44.0843 23.3922C41.8274 25.4907 39.721 27.7391 38.8182 28.4886L41.9779 27.7391C38.9687 31.6364 36.5614 35.2339 35.3577 37.1826L35.2072 37.3324C35.2072 37.3324 36.5614 31.7863 33.8531 31.7863C31.2953 31.7863 26.1797 39.5809 27.9852 43.9279C28.2862 44.5274 28.5871 45.127 28.888 45.5767C30.2421 47.5254 32.499 48.8744 35.3577 49.1742C39.1192 49.9237 44.987 49.0243 51.1558 44.0778C58.0769 38.6815 62.2897 26.3901 58.6787 17.3963C57.0237 13.0494 53.1118 9.45186 46.1907 7.05353C43.0311 6.00427 40.9247 5.70447 39.4201 5.70447C38.6678 4.955 37.6146 4.05562 36.4109 3.15625C33.2513 1.05771 28.5871 -0.741038 22.7192 0.308232C16.099 1.5074 21.666 2.85646 24.2238 4.955C25.1265 5.70447 25.4275 6.60385 24.2238 7.80301C23.4715 8.55249 23.321 9.00218 23.622 9.30197C23.0201 9.60176 22.4183 9.90155 21.8165 10.2013C18.6568 12.0001 11.2844 15.5976 9.93025 27.2894C9.0275 32.0861 9.62933 37.932 13.2403 44.0778C13.3908 44.3775 13.5412 44.6773 13.6917 44.9771C13.6917 45.127 13.6917 45.127 13.8422 45.2769C14.444 46.9258 13.2403 47.0757 10.6825 47.3755C10.0807 47.5254 9.47887 47.6752 8.72658 47.6752C3.611 47.975 1.20367 53.821 0 58.018C0.300917 58.3178 0.451375 57.7183 1.8055 58.018C1.8055 58.018 5.26604 59.2172 9.0275 55.7696C11.7357 53.2214 15.9486 52.4719 18.055 55.7696Z" fill="white"/>
<path d="M97.4625 35.4179C97.4625 36.5653 97.297 37.6345 96.9662 38.6255C96.6353 39.5904 96.139 40.438 95.4773 41.1682C94.841 41.8984 94.0393 42.4721 93.0722 42.8894C92.1305 43.2806 91.0361 43.4762 89.789 43.4762H77V16.5238H89.2928C90.6671 16.5238 91.8378 16.7325 92.805 17.1497C93.7721 17.5409 94.5611 18.0755 95.1719 18.7536C95.8082 19.4316 96.2663 20.214 96.5462 21.1006C96.8262 21.9873 96.9662 22.9262 96.9662 23.9171C96.9662 24.3866 96.8898 24.8821 96.7371 25.4036C96.6099 25.9252 96.4063 26.4337 96.1263 26.9292C95.8718 27.4247 95.5409 27.8811 95.1337 28.2984C94.7265 28.7156 94.2557 29.0546 93.7212 29.3154C94.3575 29.6284 94.9047 30.0326 95.3628 30.5281C95.8463 30.9975 96.2408 31.5191 96.5462 32.0928C96.8517 32.6405 97.0807 33.2142 97.2334 33.814C97.3861 34.3877 97.4625 34.9224 97.4625 35.4179ZM90.6671 24.6213C90.6671 23.865 90.4508 23.2521 90.0181 22.7827C89.5854 22.2872 88.7965 22.0395 87.6512 22.0395H83.07V26.9292H87.6512C88.7201 26.9292 89.4836 26.7206 89.9417 26.3033C90.4253 25.86 90.6671 25.2993 90.6671 24.6213ZM90.9343 35.1831C90.9343 34.3486 90.6926 33.6445 90.209 33.0708C89.7509 32.497 88.9873 32.2102 87.9184 32.2102H83.07V37.9605H87.9184C88.911 37.9605 89.6618 37.7128 90.1708 37.2173C90.6798 36.6957 90.9343 36.0177 90.9343 35.1831Z" fill="white"/>
<path d="M108.216 16.5238V43.4762H102.146V16.5238H108.216Z" fill="white"/>
<path d="M132.776 39.76C132.19 40.5162 131.516 41.1552 130.752 41.6767C130.014 42.1722 129.251 42.5765 128.462 42.8894C127.673 43.2023 126.884 43.424 126.095 43.5544C125.306 43.6848 124.568 43.75 123.881 43.75C122.685 43.75 121.476 43.5805 120.254 43.2415C119.032 42.9024 117.925 42.3809 116.933 41.6767C115.94 40.9726 115.126 40.0859 114.489 39.0167C113.879 37.9214 113.573 36.6305 113.573 35.144V25.0907C113.573 23.6042 113.866 22.3133 114.451 21.218C115.062 20.1227 115.851 19.2099 116.818 18.4797C117.811 17.7234 118.918 17.1628 120.139 16.7977C121.361 16.4326 122.608 16.25 123.881 16.25C125.433 16.25 126.986 16.4847 128.538 16.9541C130.116 17.3975 131.427 18.0885 132.47 19.0274L129.531 23.8389C128.665 23.0826 127.737 22.5871 126.744 22.3524C125.777 22.0916 124.873 21.9612 124.033 21.9612C123.524 21.9612 123.015 22.0395 122.506 22.1959C121.997 22.3524 121.527 22.6002 121.094 22.9392C120.661 23.2521 120.305 23.6824 120.025 24.2301C119.77 24.7517 119.643 25.4036 119.643 26.186V33.814C119.643 34.5964 119.77 35.2614 120.025 35.809C120.279 36.3306 120.61 36.7609 121.018 37.0999C121.425 37.4129 121.87 37.6476 122.354 37.8041C122.863 37.9605 123.372 38.0388 123.881 38.0388C124.339 38.0388 124.81 37.9736 125.293 37.8432C125.802 37.7128 126.273 37.465 126.706 37.0999V33.4619H123.079V28.2201H132.776V39.76Z" fill="white"/>
<path d="M143.242 27.3986H153.741V32.9143H143.242V43.4762H137.172V16.5238H155.535V22.0786H143.242V27.3986Z" fill="white"/>
<path d="M165.033 16.5238V43.4762H158.963V16.5238H165.033Z" fill="white"/>
<path d="M190.433 35.5743C190.433 36.9304 190.153 38.117 189.593 39.1341C189.033 40.1251 188.269 40.9596 187.302 41.6376C186.361 42.3157 185.241 42.8242 183.943 43.1632C182.67 43.5023 181.321 43.6718 179.896 43.6718C178.929 43.6718 177.987 43.6196 177.071 43.5153C176.18 43.411 175.315 43.2284 174.475 42.9676C173.635 42.6808 172.795 42.3026 171.955 41.8332C171.141 41.3377 170.327 40.7249 169.512 39.9947L172.91 35.4179C174.03 36.3306 175.149 37.0087 176.269 37.452C177.415 37.8693 178.56 38.0779 179.705 38.0779C180.545 38.0779 181.245 37.9996 181.805 37.8432C182.365 37.6867 182.81 37.4911 183.141 37.2564C183.497 36.9956 183.739 36.7218 183.866 36.4349C184.019 36.1481 184.095 35.8742 184.095 35.6134C184.095 35.2223 183.994 34.8832 183.79 34.5964C183.612 34.2834 183.294 33.9966 182.836 33.7358C182.377 33.475 181.767 33.2142 181.003 32.9534C180.265 32.6926 179.336 32.4058 178.216 32.0928C176.995 31.7538 175.913 31.3757 174.971 30.9584C174.03 30.5151 173.228 29.9935 172.566 29.3937C171.93 28.7678 171.446 28.0376 171.115 27.2031C170.785 26.3685 170.619 25.3645 170.619 24.191C170.619 22.9653 170.848 21.87 171.306 20.9051C171.79 19.9141 172.452 19.0795 173.292 18.4015C174.157 17.6974 175.175 17.1628 176.346 16.7977C177.542 16.4326 178.84 16.25 180.24 16.25C181.767 16.25 183.268 16.3934 184.744 16.6803C186.246 16.9672 187.799 17.6583 189.402 18.7536L186.691 23.7607C185.444 22.9522 184.299 22.4437 183.256 22.2351C182.238 22.0264 181.207 21.9221 180.163 21.9221C179.196 21.9221 178.407 22.0916 177.796 22.4307C177.211 22.7436 176.918 23.2782 176.918 24.0345C176.918 24.3735 177.007 24.6865 177.186 24.9733C177.389 25.2341 177.72 25.4949 178.178 25.7557C178.636 26.0165 179.234 26.2773 179.972 26.5381C180.71 26.7728 181.614 27.0466 182.683 27.3595C184.363 27.8289 185.712 28.3636 186.73 28.9634C187.748 29.5371 188.524 30.176 189.058 30.8802C189.618 31.5582 189.987 32.3014 190.165 33.1099C190.344 33.8922 190.433 34.7137 190.433 35.5743Z" fill="white"/>
<path d="M208.533 43.4762V32.5622H200.134V43.4762H194.064V16.5238H200.134V26.9683H208.533V16.5238H214.679V43.4762H208.533Z" fill="white"/>
</svg>
