<svg width="350" height="350" viewBox="0 0 350 350" fill="none" xmlns="http://www.w3.org/2000/svg">
<path d="M239.24 35.4347C237.563 35.4347 236.425 35.7353 235.244 36.1434V36.4226H235.448C236.235 38.6561 237.577 40.2883 238.569 42.2856C239.356 44.5836 240.027 46.8816 240.815 49.1581L241.019 48.836C242.39 47.4185 243.06 45.142 243.06 41.6843C242.477 40.6749 242.39 39.6655 241.894 38.6776C241.31 37.2387 240.056 36.53 239.269 35.3917L239.24 35.4347ZM84.1458 318.795H70.6271C70.2469 287.155 68.9332 255.555 66.6896 224.084H66.5729L46.0104 318.795H35.7292L15.3125 224.084H15.1667C13.5697 255.604 12.6213 287.189 12.3229 318.795H0C0.802083 276.572 2.8 236.97 5.97917 200.03H22.75L42.2187 287.31H42.3354L61.9792 200.03H77.9479C81.4771 243.305 83.5479 282.929 84.1896 318.795H84.1458ZM142.727 231.171C137.215 275.09 129.952 307.047 120.969 326.956C113.94 342.333 106.24 350 97.8833 350C95.6521 350 92.925 349.012 89.6292 347.036V336.427C91.2333 336.792 93.1292 336.985 95.2583 336.985C99.1667 336.985 102.302 335.375 104.694 332.217C107.567 328.352 108.996 324.014 108.996 319.224C108.996 315.895 107.873 309.13 105.642 298.95L90.8542 231.171H104.125L114.727 281.855C117.119 293.367 118.125 301.399 117.717 305.973C123.55 283.122 127.604 258.145 129.894 231.171H142.727ZM322.467 318.795H284.112V200.03H297.019V304.191H322.467V318.795ZM274.05 321.694L259.233 310.956C260.546 309.324 261.815 307.563 262.952 305.587C269.267 294.72 272.402 278.569 272.402 257.2C272.402 217.898 261.931 198.226 240.975 198.226C230.708 198.226 222.687 203.209 216.912 213.195C210.642 224.105 207.492 240.17 207.492 261.41C207.492 282.285 210.262 297.619 215.862 307.369C220.967 316.175 228.652 320.577 238.948 320.577C242.798 320.577 246.327 319.869 249.521 318.473L268.844 335.052L274.094 321.694H274.05ZM226.042 295.02C222.76 287.289 221.127 274.832 221.127 257.737C221.127 227.821 227.31 212.851 239.648 212.851C246.108 212.851 250.877 216.438 253.896 223.59C257.162 231.364 258.796 243.692 258.796 260.594C258.796 290.746 252.612 305.866 240.275 305.866C233.785 305.866 229.046 302.279 226.012 295.128L226.042 295.02ZM201.862 285.893C201.862 295.987 199.354 304.277 194.337 310.72C189.321 317.163 182.627 320.384 174.154 320.384C166.235 320.384 158.638 316.69 151.215 309.324L154.671 299.101C161.058 303.826 166.819 306.145 172.025 306.145C176.867 306.145 180.673 304.577 183.444 301.42C184.829 299.883 185.947 297.885 186.707 295.589C187.468 293.294 187.848 290.766 187.819 288.212C187.819 281.125 184.465 275.112 178.369 270.065C172.71 265.49 161.408 255.955 161.408 255.955C155.254 249.361 152.192 242.296 152.192 230.677C152.192 221.013 154.481 213.281 159.046 207.375C163.64 201.405 169.546 198.462 176.838 198.462C184.304 198.462 191.129 201.383 197.254 207.268L194.148 217.49C189.254 214.324 183.976 212.644 178.631 212.551C174.504 212.551 171.31 214.011 169.094 216.975C167.969 218.347 167.062 220.066 166.437 222.011C165.812 223.955 165.485 226.077 165.477 228.229C165.477 235.273 168.89 241.329 175.19 246.484C180.921 251.101 192.5 260.873 192.5 260.873C198.815 267.423 201.95 274.403 201.95 285.957L201.862 285.893ZM338.683 160.213C330.881 159.912 324.829 161.072 319.769 164.25C318.31 165.109 315.977 165.109 315.773 167.837C316.575 168.975 316.692 170.844 317.377 172.433C318.544 175.311 320.556 179.155 322.423 181.174C324.465 183.536 326.506 185.813 328.65 187.831C332.442 191.268 336.744 193.308 340.463 196.766C342.577 198.784 344.735 201.34 346.879 203.488C347.944 204.562 348.629 206.494 350 207.182V206.752C349.329 205.464 349.125 203.595 348.469 202.156C347.492 200.717 346.515 199.429 345.552 198.011C342.689 192.455 339.272 187.567 335.417 183.515C332.296 180.379 325.471 175.998 324.187 170.736L323.998 170.436C326.127 170.156 328.665 169.018 330.706 168.159C334.017 166.87 337.05 167.15 340.477 165.883C342.023 165.303 343.583 164.594 345.144 163.864V162.575C343.394 159.998 342.081 156.497 340.273 154.092C335.225 147.595 329.843 141.685 324.173 136.417C321.11 133.539 317.231 131.692 314.008 129.244C312.842 128.385 310.887 127.955 310.217 126.516C308.467 123.381 307.446 119.214 306.206 115.477C303.343 107.297 300.682 98.9655 298.229 90.5002C296.479 84.8734 295.415 79.2681 293.271 74.1137C283.208 49.695 272.315 34.8977 255.558 20.4226C251.956 17.4159 247.64 16.1273 243.075 14.5381C240.64 14.3663 238.204 14.1086 235.783 13.9582C234.179 12.9488 232.633 10.2213 231.262 8.91125C225.721 3.75691 211.371 -7.41084 207.287 7.36495C204.662 16.6857 211.181 25.8776 213.442 30.6025C215.119 33.8884 217.233 37.6467 218.4 41.3407C219.085 43.8319 219.275 46.3876 219.96 48.9863C221.506 55.3004 222.979 62.3446 225.021 68.2506C226.085 71.2573 227.252 74.4144 228.623 77.1204C229.41 78.6882 230.752 79.4184 231.058 81.9956C229.687 84.9164 229.6 89.1687 228.812 92.7338C225.312 108.991 226.683 129.093 231.642 141.056C233.202 144.621 236.921 152.524 241.894 149.496C246.269 146.919 245.306 138.758 246.56 131.563C246.852 129.845 246.662 128.707 247.26 127.547V127.869C248.631 131.907 250.002 135.751 251.256 139.789C254.26 146.833 259.51 154.135 263.9 159.01C266.233 161.587 268.085 166.054 271.002 167.644V167.214H270.783C270.156 165.968 269.325 165.367 268.537 164.358C266.688 161.692 264.982 158.82 263.433 155.767C259.324 147.499 255.681 138.751 252.54 129.609C250.935 125.099 249.594 120.245 248.31 115.799C247.727 114.081 247.727 111.504 246.75 110.645C245.292 113.781 243.148 116.508 242.083 120.374C240.231 126.559 240.042 134.162 239.342 142.065C238.948 142.215 239.137 142.065 238.948 142.366C235.827 141.249 234.762 136.481 233.596 132.487C230.679 122.285 230.198 105.899 232.721 94.1512C233.406 91.1445 236.323 81.6519 235.156 78.7741C234.544 76.0466 232.619 74.4788 231.554 72.2667C230.185 69.3877 229.012 66.3158 228.054 63.0963C225.721 55.0641 224.554 46.1729 222.017 38.1407C220.85 34.4253 218.808 30.538 217.146 27.1233C215.294 23.2575 213.252 20.53 211.779 15.9555C211.298 14.3877 210.612 11.7891 211.385 10.071C211.59 8.91126 211.998 8.46025 212.756 8.13811C214.04 6.5918 217.642 8.61058 218.91 9.46964C222.512 11.6173 225.546 13.6361 228.565 16.6428C229.935 18.0602 231.408 20.7877 233.158 21.4965H235.2C238.321 22.5058 241.835 21.7971 244.752 23.0642C249.929 25.5125 254.596 29.0776 258.781 32.9434C271.678 45.0757 282.168 62.0128 289.187 82.0385C290.354 85.3459 290.865 88.3741 291.929 91.8103C293.971 98.8975 296.494 106.049 298.565 112.9C300.606 119.665 302.575 126.559 305.506 132.165C306.965 135.171 312.827 136.739 315.452 138.307C317.392 139.595 320.41 140.777 322.16 142.344C325.515 145.351 328.781 148.787 331.931 152.095C333.535 153.727 338.392 157.313 338.683 160.213Z" fill="#0F0F0F"/>
</svg>
