<svg width="350" height="350" viewBox="0 0 350 350" fill="none" xmlns="http://www.w3.org/2000/svg">
<path d="M175 336.532L164.828 343.316C165.864 345.35 167.349 347.037 169.134 348.21C170.919 349.383 172.941 350 175 350C177.059 350 179.081 349.383 180.866 348.21C182.651 347.037 184.136 345.35 185.172 343.316L175 336.532ZM269.187 13.4613L279.407 20.1381C280.429 18.0912 280.964 15.7731 280.957 13.4158C280.95 11.0585 280.402 8.74461 279.367 6.70565C278.332 4.66668 276.847 2.97414 275.061 1.79734C273.274 0.620541 271.249 0.000760213 269.187 0V13.4613ZM175 201.919L164.781 208.596C165.811 210.655 167.299 212.366 169.093 213.556C170.888 214.746 172.925 215.373 175 215.373C177.075 215.373 179.112 214.746 180.907 213.556C182.701 212.366 184.189 210.655 185.219 208.596L175 201.919ZM80.8127 13.4613V0C78.751 0.000760213 76.7255 0.620541 74.9391 1.79734C73.1526 2.97414 71.6678 4.66668 70.6331 6.70565C69.5984 8.74461 69.0501 11.0585 69.0431 13.4158C69.0362 15.7731 69.5708 18.0912 70.5934 20.1381L80.8127 13.4613ZM151.453 13.4613L161.979 7.43062L158.753 0H151.453V13.4613ZM175 67.3064L164.475 73.337C165.453 75.57 166.956 77.4476 168.815 78.7597C170.674 80.0718 172.815 80.7668 175 80.7668C177.185 80.7668 179.326 80.0718 181.185 78.7597C183.044 77.4476 184.547 75.57 185.525 73.337L175 67.3064ZM198.547 13.4613V0H191.271L188.021 7.43062L198.547 13.4613ZM0 20.2458L164.828 343.316L185.172 329.747L20.3445 6.67679L0 20.2458ZM185.172 343.316L350 20.2458L329.656 6.67679L164.828 329.747L185.172 343.316ZM258.968 6.78448L164.781 195.242L185.219 208.596L279.407 20.1381L258.968 6.78448ZM185.219 195.242L91.032 6.78448L70.5934 20.1381L164.781 208.596L185.219 195.242ZM80.8127 26.9226H151.453V0H80.8127V26.9226ZM140.928 19.4919L164.475 73.337L185.525 61.2757L161.979 7.43062L140.928 19.4919ZM185.525 73.337L209.072 19.4919L188.021 7.43062L164.475 61.2757L185.525 73.337ZM198.547 26.9226H269.187V0H198.547V26.9226Z" fill="#0F0F0F"/>
</svg>
