<svg width="350" height="350" viewBox="0 0 350 350" fill="none" xmlns="http://www.w3.org/2000/svg">
<path fill-rule="evenodd" clip-rule="evenodd" d="M174.997 0C161.96 0 149.281 1.46661 137.063 4.17906V175.121C137.063 196.069 154.143 213.153 175.097 213.153C196.041 213.153 213.115 196.069 213.115 175.131C213.115 155.009 197.392 138.492 177.626 137.178V106.737C214.151 108.061 243.542 138.277 243.542 175.131C243.542 212.822 212.795 243.584 175.097 243.584C137.384 243.584 106.642 212.822 106.642 175.121V13.8513C102.321 15.6859 98.0993 17.7203 93.9621 19.907V175.121C93.9673 219.797 130.419 256.231 175.097 256.231C219.781 256.231 256.217 219.797 256.217 175.131C256.217 131.296 221.153 95.3982 177.626 94.0472V63.6163C237.902 64.9778 286.628 114.548 286.628 175.131C286.628 236.571 236.524 286.662 175.097 286.662C113.654 286.662 63.535 236.571 63.535 175.121V40.0927C24.739 72.1742 0 120.688 0 174.989C0 271.633 78.349 350 175.003 350C271.672 350 350 271.633 350 174.989C350 78.3455 271.672 0 174.997 0Z" fill="#0F0F0F"/>
</svg>
