<svg width="350" height="350" viewBox="0 0 350 350" fill="none" xmlns="http://www.w3.org/2000/svg">
<path d="M45.3704 33.117C43.6514 33.117 42.0028 33.6985 40.7873 34.7336C39.5718 35.7687 38.8889 37.1726 38.8889 38.6365V249.481C38.8889 251.468 40.1333 253.279 42.1296 254.272L168.104 316.134C169.067 316.609 170.157 316.864 171.269 316.876C172.382 316.887 173.479 316.655 174.456 316.201L307.741 254.007C308.764 253.53 309.617 252.828 310.21 251.973C310.803 251.118 311.114 250.143 311.111 249.15V38.6365C311.111 37.1726 310.428 35.7687 309.213 34.7336C307.997 33.6985 306.349 33.117 304.63 33.117H45.3704ZM0 38.6365C0 17.3091 20.3259 0 45.3704 0H304.63C329.674 0 350 17.3091 350 38.6365V249.172C349.997 256.098 347.808 262.895 343.662 268.854C339.516 274.812 333.565 279.711 326.433 283.04L193.148 345.255C186.312 348.442 178.628 350.075 170.836 349.997C163.044 349.92 155.406 348.135 148.659 344.814L22.7111 282.951C15.8074 279.562 10.0736 274.684 6.08675 268.809C2.09988 262.933 0.000552662 256.267 0 249.481V38.6365ZM97.2222 93.8314C97.2222 89.4398 99.2708 85.2281 102.917 82.1228C106.564 79.0175 111.51 77.2729 116.667 77.2729H236.315C241.472 77.2729 246.418 79.0175 250.064 82.1228C253.711 85.2281 255.759 89.4398 255.759 93.8314V228.419C255.762 231.493 254.759 234.507 252.863 237.124C250.967 239.74 248.254 241.856 245.026 243.233L185.189 268.711C182.492 269.858 179.518 270.455 176.504 270.455C173.489 270.455 170.516 269.858 167.819 268.711L107.981 243.233C104.753 241.86 102.037 239.75 100.136 237.137C98.2362 234.525 97.2272 231.514 97.2222 228.441V215.68C97.2222 211.288 99.2708 207.076 102.917 203.971C106.564 200.866 111.51 199.121 116.667 199.121C121.824 199.121 126.769 200.866 130.416 203.971C134.063 207.076 136.111 211.288 136.111 215.68V218.197L176.504 235.373L216.87 218.197V181.304H149.074C143.917 181.304 138.971 179.56 135.325 176.454C131.678 173.349 129.63 169.137 129.63 164.746C129.63 160.354 131.678 156.143 135.325 153.037C138.971 149.932 143.917 148.187 149.074 148.187H216.87V110.39H116.667C111.51 110.39 106.564 108.645 102.917 105.54C99.2708 102.435 97.2222 98.223 97.2222 93.8314Z" fill="#0F0F0F"/>
</svg>
