<svg width="356" height="356" viewBox="0 0 356 356" fill="none" xmlns="http://www.w3.org/2000/svg">
<path d="M73.0078 195.497C81.0228 207.17 92.6953 212.997 108.008 212.997C130.985 212.997 143.008 197.685 143.008 186.747C143.008 160.497 108.008 169.247 108.008 151.747C108.008 140.81 117.038 125.497 134.258 125.497C178.008 125.497 161.61 160.497 230.508 160.497C242.18 160.497 248.008 154.67 248.008 142.997" stroke="#0F0F0F" stroke-width="6" stroke-linecap="round" stroke-linejoin="round"/>
<path d="M125.511 265.498C123.849 277.171 129.676 282.998 143.011 282.998C173.006 282.998 190.506 247.998 195.511 177.998C200.516 107.998 223.004 72.998 248.011 72.998C258.004 72.998 263.849 78.8255 265.511 90.498" stroke="#0F0F0F" stroke-width="6" stroke-linecap="round" stroke-linejoin="round"/>
<path d="M353 178C353 274.652 274.652 353 178 353C81.3475 353 3 274.652 3 178C3 81.3475 81.3475 3 178 3C200.981 3 223.738 7.52651 244.97 16.3211C266.202 25.1157 285.493 38.0061 301.744 54.2563C317.994 70.5066 330.884 89.7984 339.679 111.03C348.474 132.262 353 155.019 353 178Z" stroke="#0F0F0F" stroke-width="6" stroke-linecap="round" stroke-linejoin="round"/>
</svg>
