<svg width="80" height="80" viewBox="0 0 80 80" fill="none" xmlns="http://www.w3.org/2000/svg">
<path d="M69.8232 38.5855V39.2927C69.8232 39.5285 69.8363 39.7642 69.8625 40V40.7073C69.8625 40.943 69.8494 41.1788 69.8232 41.4145L80 47.7407L73.7525 62.7898L62.0825 60.1179C61.4538 60.799 60.799 61.4538 60.1179 62.0825L62.7898 73.7525L47.7407 80L41.4145 69.8232H40.7073C40.4715 69.8232 40.2358 69.8363 40 69.8625H39.2927C39.057 69.8625 38.8212 69.8494 38.5855 69.8232L32.2593 80L17.2102 73.7525L19.8821 62.0825C19.201 61.4538 18.5462 60.799 17.9175 60.1179L6.24754 62.7898L0 47.7407L10.1768 41.4145V40.7073C10.1768 40.4715 10.1637 40.2358 10.1375 40V39.2927C10.1375 39.057 10.1506 38.8212 10.1768 38.5855L0 32.2593L6.24754 17.2102L17.9175 19.8821C18.5462 19.201 19.201 18.5462 19.8821 17.9175L17.2102 6.24754L32.2593 0L38.5855 10.1768H39.2927C39.5285 10.1768 39.7642 10.1637 40 10.1375H40.7073C40.943 10.1375 41.1788 10.1506 41.4145 10.1768L47.7407 0L62.7898 6.24754L60.1179 17.9175C60.799 18.5462 61.4538 19.201 62.0825 19.8821L73.7525 17.2102L80 32.2593L69.8232 38.5855ZM65.2259 43.6935C65.2783 43.0648 65.3307 42.4492 65.3831 41.8468C65.4355 41.2443 65.4617 40.6156 65.4617 39.9607C65.4617 39.3582 65.4355 38.7426 65.3831 38.1139C65.3307 37.4853 65.2783 36.8697 65.2259 36.2672L74.499 30.4912L71.1198 22.3183L60.4715 24.7937C59.6595 23.7983 58.8343 22.8815 57.9961 22.0432C57.1578 21.205 56.2279 20.3667 55.2063 19.5285L57.6817 8.88016L49.5088 5.50098L43.6935 14.7741C43.091 14.7217 42.4754 14.6693 41.8468 14.6169C41.2181 14.5645 40.6025 14.5383 40 14.5383C39.3713 14.5383 38.7557 14.5645 38.1532 14.6169C37.5508 14.6693 36.9221 14.7217 36.2672 14.7741L30.4912 5.50098L22.3183 8.88016L24.7937 19.5285C23.7983 20.3405 22.8815 21.1657 22.0432 22.0039C21.205 22.8422 20.3667 23.7721 19.5285 24.7937L8.88016 22.3183L5.50098 30.4912L14.7741 36.3065C14.7217 36.9352 14.6693 37.5508 14.6169 38.1532C14.5645 38.7557 14.5383 39.3844 14.5383 40.0393C14.5383 40.6418 14.5645 41.2574 14.6169 41.8861C14.6693 42.5147 14.7217 43.1303 14.7741 43.7328L5.50098 49.5088L8.88016 57.6817L19.5285 55.2063C20.3405 56.2017 21.1657 57.1185 22.0039 57.9568C22.8422 58.795 23.7721 59.6333 24.7937 60.4715L22.3183 71.1198L30.4912 74.499L36.3065 65.2259C36.909 65.2783 37.5246 65.3307 38.1532 65.3831C38.7819 65.4355 39.3975 65.4617 40 65.4617C40.6287 65.4617 41.2443 65.4355 41.8468 65.3831C42.4492 65.3307 43.0779 65.2783 43.7328 65.2259L49.5088 74.499L57.6817 71.1198L55.2063 60.4715C56.2017 59.6595 57.1185 58.8343 57.9568 57.9961C58.795 57.1578 59.6333 56.2279 60.4715 55.2063L71.1198 57.6817L74.499 49.5088L65.2259 43.6935ZM40 25.2259C42.0432 25.2259 43.9555 25.6058 45.7367 26.3654C47.518 27.1251 49.0897 28.186 50.4519 29.5481C51.814 30.9103 52.8618 32.4689 53.5953 34.224C54.3287 35.979 54.7217 37.9044 54.7741 40C54.7741 42.0432 54.3942 43.9555 53.6346 45.7367C52.8749 47.518 51.814 49.0897 50.4519 50.4519C49.0897 51.814 47.5311 52.8618 45.776 53.5953C44.021 54.3287 42.0956 54.7217 40 54.7741C37.9568 54.7741 36.0445 54.3942 34.2633 53.6346C32.482 52.8749 30.9103 51.814 29.5481 50.4519C28.186 49.0897 27.1382 47.5311 26.4047 45.776C25.6713 44.021 25.2783 42.0956 25.2259 40C25.2259 37.9568 25.6058 36.0445 26.3654 34.2633C27.1251 32.482 28.186 30.9103 29.5481 29.5481C30.9103 28.186 32.4689 27.1382 34.224 26.4047C35.979 25.6713 37.9044 25.2783 40 25.2259ZM40 50.3733C41.4407 50.3733 42.7898 50.1113 44.0472 49.5874C45.3045 49.0635 46.4047 48.317 47.3477 47.3477C48.2908 46.3785 49.0242 45.2783 49.5481 44.0472C50.072 42.816 50.3471 41.4669 50.3733 40C50.3733 38.5593 50.1113 37.2102 49.5874 35.9528C49.0635 34.6955 48.317 33.5953 47.3477 32.6523C46.3785 31.7092 45.2783 30.9758 44.0472 30.4519C42.816 29.928 41.4669 29.6529 40 29.6267C38.5593 29.6267 37.2102 29.8887 35.9528 30.4126C34.6955 30.9365 33.5953 31.683 32.6523 32.6523C31.7092 33.6215 30.9758 34.7217 30.4519 35.9528C29.928 37.184 29.6529 38.5331 29.6267 40C29.6267 41.4407 29.8887 42.7898 30.4126 44.0472C30.9365 45.3045 31.683 46.4047 32.6523 47.3477C33.6215 48.2908 34.7217 49.0242 35.9528 49.5481C37.184 50.072 38.5331 50.3471 40 50.3733Z" fill="black"/>
</svg>
