<svg width="350" height="350" viewBox="0 0 350 350" fill="none" xmlns="http://www.w3.org/2000/svg">
<path d="M157.456 42C149.174 41.9894 140.972 43.9866 133.317 47.8775C125.662 51.7685 118.705 57.4769 112.843 64.6771C106.981 71.8772 102.328 80.4279 99.1506 89.841C95.9733 99.2542 94.3336 109.345 94.325 119.538V292.035C94.3134 307.418 89.3387 322.165 80.4946 333.035C71.6505 343.905 59.6612 350.007 47.1625 350C34.6638 350.007 22.6744 343.905 13.8304 333.035C4.98631 322.165 0.0115984 307.418 0 292.035C0 286.454 1.80111 281.103 5.0071 277.157C8.21309 273.211 12.5613 270.994 17.0953 270.994C21.6293 270.994 25.9775 273.211 29.1835 277.157C32.3895 281.103 34.1906 286.454 34.1906 292.035C34.1906 296.272 35.5584 300.337 37.9932 303.333C40.4279 306.33 43.7302 308.013 47.1734 308.013C50.6167 308.013 53.9189 306.33 56.3536 303.333C58.7884 300.337 60.1562 296.272 60.1562 292.035V119.565C60.1648 103.851 62.6886 88.2926 67.5833 73.7787C72.478 59.2649 79.6478 46.08 88.6832 34.9769C97.7186 23.8739 108.443 15.0703 120.243 9.06892C132.043 3.06752 144.688 -0.0140995 157.456 4.84953e-05C178.532 -0.0125889 199.042 8.396 215.903 23.9616C232.763 39.5271 245.061 61.4084 250.95 86.3154C277.485 87.3293 302.658 101.009 321.144 124.459C339.63 147.91 349.979 179.292 350 211.965C350.002 212.992 349.944 214.018 349.825 215.035C349.945 216.06 350.003 217.095 350 218.131V329C350 340.577 342.344 350 332.915 350H157.456C155.214 350.004 152.993 349.463 150.92 348.409C148.847 347.355 146.964 345.809 145.377 343.859C143.79 341.908 142.532 339.592 141.673 337.043C140.814 334.493 140.372 331.76 140.372 329V218.131C140.372 206.527 148.028 197.131 157.434 197.131C165.718 197.141 173.922 195.143 181.579 191.251C189.235 187.358 196.193 181.647 202.055 174.444C207.918 167.241 212.57 158.687 215.746 149.271C218.922 139.855 220.56 129.761 220.566 119.565C220.56 109.372 218.923 99.2804 215.748 89.8659C212.574 80.4514 207.923 71.8987 202.063 64.6961C196.203 57.4935 189.247 51.782 181.594 47.8878C173.94 43.9936 165.738 41.993 157.456 42ZM316.006 215.035C315.887 214.018 315.829 212.992 315.831 211.965C315.821 191.184 309.537 171.148 298.198 155.75C286.859 140.351 271.274 130.689 254.472 128.638C252.813 155.087 244.062 180.109 229.594 199.772C215.126 219.435 195.761 232.626 174.541 237.273V308H228.091V261.235C228.091 255.654 229.892 250.303 233.098 246.357C236.304 242.411 240.652 240.194 245.186 240.194C249.72 240.194 254.068 242.411 257.274 246.357C260.48 250.303 262.281 255.654 262.281 261.235V308H315.809V218.131C315.809 217.054 315.875 216.058 316.006 215.035Z" fill="#0F0F0F"/>
</svg>
