<svg width="350" height="350" viewBox="0 0 350 350" fill="none" xmlns="http://www.w3.org/2000/svg">
<path d="M175 0C78.575 0 0 78.575 0 175C0 271.425 78.575 350 175 350C271.425 350 350 271.425 350 175C350 78.575 271.425 0 175 0ZM17.675 175C17.675 152.25 22.575 130.55 31.325 110.95L106.4 316.575C53.9 291.025 17.675 237.3 17.675 175ZM175 332.325C159.6 332.325 144.725 330.05 130.55 325.85L177.8 188.65L226.1 321.125C226.45 321.825 226.8 322.7 227.15 323.225C210.875 329.175 193.375 332.325 175 332.325ZM196.7 101.15C206.15 100.625 214.725 99.575 214.725 99.575C223.125 98.525 222.25 86.1 213.675 86.625C213.675 86.625 188.125 88.55 171.675 88.55C156.275 88.55 130.2 86.625 130.2 86.625C121.8 86.275 120.75 99.225 129.325 99.75C129.325 99.75 137.375 100.8 145.775 101.325L170.275 168.525L135.8 271.775L78.575 101.15C88.025 100.8 96.6 99.75 96.6 99.75C105 98.7 104.125 86.275 95.55 86.8C95.55 86.8 70 88.725 53.55 88.725C50.575 88.725 47.075 88.725 43.4 88.55C71.75 45.85 120.05 17.675 175 17.675C215.95 17.675 253.225 33.25 281.225 58.975C280.525 58.975 279.825 58.8 279.125 58.8C263.725 58.8 252.7 72.275 252.7 86.8C252.7 99.75 260.225 110.775 268.1 123.725C274.05 134.225 281.05 147.7 281.05 167.125C281.05 180.6 275.8 196.175 269.15 218.05L253.4 270.55L196.7 101.15ZM313.075 99.575C332.731 135.549 337.566 177.775 326.551 217.261C315.535 256.746 289.54 290.372 254.1 310.975L302.225 172.025C311.15 149.625 314.125 131.6 314.125 115.675C314.125 109.9 313.775 104.475 313.075 99.575Z" fill="#0F0F0F"/>
</svg>
