<svg width="356" height="356" viewBox="0 0 356 356" fill="none" xmlns="http://www.w3.org/2000/svg">
<path d="M140.5 53H165.5M103 90.5V28C103 21.3696 105.634 15.0107 110.322 10.3223C115.011 5.63392 121.37 3 128 3H228C234.63 3 240.989 5.63392 245.678 10.3223C250.366 15.0107 253 21.3696 253 28V153C253 159.63 250.366 165.989 245.678 170.678C240.989 175.366 234.63 178 228 178H128C121.37 178 115.011 180.634 110.322 185.322C105.634 190.011 103 196.37 103 203V328C103 334.63 105.634 340.989 110.322 345.678C115.011 350.366 121.37 353 128 353H228C234.63 353 240.989 350.366 245.678 345.678C250.366 340.989 253 334.63 253 328V265.5M190.5 103H28C21.3696 103 15.0107 105.634 10.3223 110.322C5.63392 115.011 3 121.37 3 128V253C3 259.63 5.63392 265.989 10.3223 270.678C15.0107 275.366 21.3696 278 28 278H103M165.5 253H328C334.63 253 340.989 250.366 345.678 245.678C350.366 240.989 353 234.63 353 228V103C353 96.3696 350.366 90.0107 345.678 85.3223C340.989 80.6339 334.63 78 328 78H253M190.5 303H215.5" stroke="#0F0F0F" stroke-width="6"/>
</svg>
